<?xml version="1.0" encoding="iso-8859-1"?>
<!-- Generator: Adobe Illustrator 19.0.0, SVG Export Plug-In . SVG Version: 6.00 Build 0)  -->
<svg version="1.1" id="Capa_1" xmlns="http://www.w3.org/2000/svg" xmlns:xlink="http://www.w3.org/1999/xlink" x="0px" y="0px"
	 viewBox="0 0 490.407 490.407" style="enable-background:new 0 0 490.407 490.407;" xml:space="preserve">
<g>
	<g>
		<g>
			<path d="M288.336,97.59c-53.6-26.3-100.2,8.3-113.6,36.5l-171.8,326.1c-7.4,12.8,2.8,37.6,27.1,28.1l328.2-175
				c40.6-20.8,56.3-70.8,36.5-111.5C371.736,157.99,335.236,122.59,288.336,97.59z M337.336,279.89l-268.8,141.7l141.7-267.8
				c7.3-14.6,32.7-34.2,58.3-17.7c40.6,20.8,69.8,50,88.6,86.5C367.536,243.39,358.236,268.49,337.336,279.89z"/>
			<path d="M325.936,116.49c13.5,4,24-4.2,26-12.5l29.2-77.1c3.1-10.4-2.1-21.9-12.5-26c-10.4-3.1-21.9,2.1-26,12.5l-29.2,77.1
				C310.336,100.89,315.536,112.29,325.936,116.49z"/>
			<path d="M348.836,140.29c12.1,11.4,25,4.2,29.2,1l53.1-54.1c8.3-8.3,8.3-20.8,0-29.2c-8.3-8.3-20.8-8.3-29.2,0l-53.1,53.1
				C340.436,119.49,340.236,132.19,348.836,140.29z"/>
			<path d="M488.436,119.29c-4.2-10.4-15.6-15.6-26-11.5l-77.1,29.2c-10.4,4.2-15.6,15.6-11.5,26c3.1,8.3,12.6,17.4,26,11.5
				l77.1-29.2C487.336,141.19,492.536,129.69,488.436,119.29z"/>
		</g>
	</g>
</g>
<g>
</g>
<g>
</g>
<g>
</g>
<g>
</g>
<g>
</g>
<g>
</g>
<g>
</g>
<g>
</g>
<g>
</g>
<g>
</g>
<g>
</g>
<g>
</g>
<g>
</g>
<g>
</g>
<g>
</g>
</svg>
