<?xml version="1.0" encoding="UTF-8" standalone="no"?>
<!-- Uploaded to SVGRepo https://www.svgrepo.com -->

<svg
   version="1.1"
   id="Layer_1"
   x="0px"
   y="0px"
   width="495"
   height="495"
   viewBox="0 0 495 494.99999"
   enable-background="new 0 0 36 32"
   xml:space="preserve"
   sodipodi:docname="profile_pic.svg"
   inkscape:version="1.1.1 (3bf5ae0d25, 2021-09-20)"
   inkscape:export-filename="C:\Users\dboja\source\repos\ChonkyApp\ChonkyApp\ChonkyApp.Android\Resources\drawable\profile_pic.png"
   inkscape:export-xdpi="96"
   inkscape:export-ydpi="96"
   xmlns:inkscape="http://www.inkscape.org/namespaces/inkscape"
   xmlns:sodipodi="http://sodipodi.sourceforge.net/DTD/sodipodi-0.dtd"
   xmlns="http://www.w3.org/2000/svg"
   xmlns:svg="http://www.w3.org/2000/svg"><defs
   id="defs9" /><sodipodi:namedview
   id="namedview7"
   pagecolor="#000000"
   bordercolor="#666666"
   borderopacity="1.0"
   inkscape:pageshadow="2"
   inkscape:pageopacity="0"
   inkscape:pagecheckerboard="true"
   showgrid="false"
   inkscape:zoom="1.28"
   inkscape:cx="641.79688"
   inkscape:cy="298.04688"
   inkscape:window-width="2560"
   inkscape:window-height="1369"
   inkscape:window-x="2552"
   inkscape:window-y="-8"
   inkscape:window-maximized="1"
   inkscape:current-layer="g4"
   width="495px"
   fit-margin-top="0"
   fit-margin-left="0"
   fit-margin-right="0"
   fit-margin-bottom="0"><inkscape:grid
     type="xygrid"
     id="grid2026" /></sodipodi:namedview>
<g
   id="g4"
   transform="translate(-5.731386,-2.0292109)">
	
<circle
   style="fill:#800080;fill-opacity:1;stroke:#800080;stroke-width:9.09315"
   id="path1010"
   cx="232.76163"
   cy="214.79947"
   r="68.995392" /><ellipse
   style="fill:#ffffff;fill-opacity:1;stroke:#800080;stroke-width:8.81579"
   id="path1108"
   cx="251.92712"
   cy="232.96494"
   rx="106.63157"
   ry="99.965355" /><ellipse
   style="fill:#800080;fill-opacity:1;stroke:#800080;stroke-width:13.1049"
   id="path1312"
   cx="252.09375"
   cy="217.97771"
   rx="37.991508"
   ry="31.503702" /><ellipse
   style="fill:#800080;fill-opacity:1;stroke:#800080;stroke-width:9.09315"
   id="path1630"
   cx="253.92691"
   cy="298.79395"
   rx="51.163254"
   ry="33.331112" /><path
   style="fill:#000000;fill-opacity:1;stroke:#800080;stroke-width:0.78125"
   d="m 191.97334,311.37499 c -11.56741,-6.75961 -23.51879,-17.7622 -30.91415,-28.45997 -5.66768,-8.19859 -11.35157,-20.44323 -13.82835,-29.79002 -2.7377,-10.33147 -3.45675,-26.35998 -1.64776,-36.73088 6.94286,-39.80327 39.6975,-71.36162 82.04529,-79.04877 9.63323,-1.74867 27.42124,-1.72531 37.21538,0.0489 41.25015,7.4723 73.2417,37.32685 81.3191,75.88704 2.00853,9.58838 2.00853,25.56787 0,35.15625 -4.99329,23.83715 -18.97046,44.72613 -39.35704,58.81937 -3.23911,2.23919 -6.05139,4.07126 -6.24954,4.07126 -0.19813,0 0.38667,-1.49414 1.29956,-3.32032 2.50866,-5.01842 2.73375,-15.13473 0.47095,-21.16693 -9.69413,-25.84278 -55.88522,-36.6884 -87.87365,-20.63265 -9.1965,4.61594 -15.97151,11.2226 -19.83144,19.33865 -1.73617,3.65054 -2.04356,5.35884 -2.04356,11.35694 0,6.3669 0.24478,7.55395 2.49315,12.09018 1.37123,2.76656 2.40537,5.11789 2.29808,5.22518 -0.10728,0.10729 -2.53549,-1.1726 -5.39602,-2.84419 z m 65.44854,-58.24948 c 17.36968,-3.6343 30.99972,-16.81578 33.39598,-32.29694 2.66113,-17.19238 -8.77504,-33.98176 -27.5571,-40.45641 -7.82166,-2.69632 -20.58257,-3.37695 -28.47355,-1.5187 -19.71226,4.64206 -33.18651,19.73049 -33.18651,37.16217 0,25.05498 27.15518,43.10772 55.82118,37.10988 z"
   id="path18782"
   transform="translate(5.731386,2.0292109)" /></g>
</svg>
