<?xml version="1.0" encoding="UTF-8" standalone="no"?>
<svg
   width="256px"
   height="256px"
   viewBox="0 0 256 256"
   id="Flat"
   version="1.1"
   sodipodi:docname="smiley_wink_thin.svg"
   inkscape:version="1.1.1 (3bf5ae0d25, 2021-09-20)"
   xmlns:inkscape="http://www.inkscape.org/namespaces/inkscape"
   xmlns:sodipodi="http://sodipodi.sourceforge.net/DTD/sodipodi-0.dtd"
   xmlns="http://www.w3.org/2000/svg"
   xmlns:svg="http://www.w3.org/2000/svg">
  <defs
     id="defs836" />
  <sodipodi:namedview
     id="namedview834"
     pagecolor="#000000"
     bordercolor="#666666"
     borderopacity="1.0"
     inkscape:pageshadow="2"
     inkscape:pageopacity="0"
     inkscape:pagecheckerboard="0"
     showgrid="false"
     inkscape:zoom="4.5351562"
     inkscape:cx="108.15504"
     inkscape:cy="128"
     inkscape:window-width="2560"
     inkscape:window-height="1369"
     inkscape:window-x="2552"
     inkscape:window-y="-8"
     inkscape:window-maximized="1"
     inkscape:current-layer="Flat" />
  <path
     d="M128,28A100,100,0,1,0,228,128,100.11332,100.11332,0,0,0,128,28Zm0,192a92,92,0,1,1,92-92A92.10416,92.10416,0,0,1,128,220ZM84,108a8,8,0,1,1,8,8A7.99993,7.99993,0,0,1,84,108Zm96,0a4.0002,4.0002,0,0,1-4,4H152a4,4,0,0,1,0-8h24A4.0002,4.0002,0,0,1,180,108Zm-6.95752,46a52.01593,52.01593,0,0,1-90.08447.001,4,4,0,1,1,6.9248-4.00586,44.01578,44.01578,0,0,0,76.23438-.00049A4.00008,4.00008,0,0,1,173.04248,154Z"
     id="path831" />
  <path
     style="fill:#006400;stroke:none;stroke-width:0.2205;fill-opacity:1"
     d="m 122.48751,227.75738 c -0.4851,-0.047 -2.09404,-0.1906 -3.57542,-0.31903 -19.679266,-1.70612 -39.387913,-9.86209 -54.736096,-22.65126 -3.251182,-2.70912 -8.940967,-8.28772 -11.622638,-11.39553 -13.7175,-15.89733 -22.002493,-35.30887 -24.004012,-56.24083 -0.444397,-4.64752 -0.442849,-13.6803 0.0031,-18.30146 C 30.581932,97.820784 38.813681,78.531471 52.553356,62.608443 55.25297,59.479838 60.948487,53.899662 64.165375,51.231582 79.754172,38.30227 98.079523,30.688859 118.84927,28.512728 c 4.51841,-0.473413 15.36604,-0.357862 20.06546,0.213741 9.35627,1.138028 17.43904,3.150358 25.52644,6.355201 13.15943,5.214771 24.06254,12.373379 34.02551,22.339986 8.29774,8.300776 13.90896,16.1294 19.05761,26.58868 5.77771,11.737199 8.88185,22.922444 10.0357,36.161934 0.3407,3.9094 0.28098,12.87635 -0.11309,16.97846 -1.96617,20.46715 -9.71966,39.04176 -22.99353,55.08432 -2.3093,2.79098 -7.54528,8.10413 -10.85475,11.01473 -15.17005,13.34171 -34.56053,21.81191 -55.14921,24.09041 -2.96654,0.3283 -13.92474,0.61471 -15.9619,0.41719 z m 14.85877,-8.15441 c 11.41014,-1.19122 21.66074,-4.19847 31.99739,-9.38715 24.1745,-12.13488 41.62859,-34.021 48.0692,-60.27519 1.96484,-8.0094 2.53144,-12.95342 2.5271,-22.05088 -0.004,-7.56383 -0.23822,-10.44467 -1.33785,-16.42722 C 211.47232,72.672691 180.78755,42.905768 141.78258,36.940825 136.88649,36.192078 133.84755,35.980287 128,35.980287 c -5.84755,0 -8.88649,0.211791 -13.78258,0.960538 -24.840433,3.798792 -46.655316,17.22057 -61.322321,37.729039 -7.623937,10.660343 -13.070901,23.592234 -15.497218,36.792666 -1.108746,6.03216 -1.336698,8.85235 -1.336698,16.53747 0,7.68512 0.227952,10.50531 1.336698,16.53747 4.194045,22.8178 16.763779,43.17241 35.256727,57.09246 14.326598,10.78395 31.551882,17.1279 49.722652,18.31251 3.79776,0.24758 10.88556,0.0868 14.96902,-0.33947 z"
     id="path955" />
  <path
     style="fill:#006400;stroke:none;stroke-width:0.2205;fill-opacity:1"
     d="m 150.49096,111.48678 c -0.4851,-0.22389 -1.09865,-0.64342 -1.36344,-0.93228 -1.59873,-1.7441 -1.10248,-4.70093 0.98596,-5.8747 l 0.87852,-0.49375 h 12.93141 c 14.12631,0 13.8445,-0.0243 14.94821,1.28741 1.67903,1.99541 1.10353,4.84529 -1.20403,5.96236 -0.95057,0.46016 -1.17071,0.46763 -13.6304,0.46287 -11.84093,-0.005 -12.72157,-0.0313 -13.54623,-0.41191 z"
     id="path1105" />
  <path
     style="fill:#006400;stroke:none;stroke-width:0.2205;fill-opacity:1"
     d="m 89.714698,115.52747 c -2.247092,-0.6919 -4.319541,-2.6884 -5.129883,-4.94188 -0.556568,-1.54777 -0.513974,-3.75612 0.104293,-5.4073 0.685573,-1.83092 2.668609,-3.8151 4.502968,-4.50556 1.095298,-0.41227 1.645571,-0.4829 3.197244,-0.41039 1.612011,0.0753 2.069411,0.19183 3.269129,0.83256 1.6159,0.863 2.723835,2.04003 3.532335,3.75265 0.473755,1.00353 0.573621,1.53607 0.578896,3.08699 0.0054,1.59943 -0.08423,2.06823 -0.611522,3.19724 -1.714395,3.67074 -5.728966,5.53942 -9.44346,4.39569 z"
     id="path1255" />
  <path
     style="fill:#006400;stroke:none;stroke-width:0.2205;fill-opacity:1"
     d="m 122.26701,179.57365 c -15.95247,-1.94266 -30.019022,-10.83252 -38.342168,-24.2317 -0.564991,-0.90956 -1.132445,-2.04236 -1.26101,-2.51732 -0.661738,-2.44469 1.834994,-5.13027 4.333716,-4.6615 1.285037,0.24107 2.156076,1.07305 3.958524,3.78103 3.143349,4.72253 6.48222,8.30435 10.562748,11.33132 5.96703,4.42639 12.2154,7.05938 19.73653,8.31673 3.23972,0.54161 10.24958,0.54161 13.4893,0 12.90914,-2.1581 23.45641,-9.04967 30.48314,-19.91764 1.56962,-2.42766 2.18603,-3.03465 3.47346,-3.42038 2.5184,-0.75453 5.32482,2.01286 4.63588,4.57141 -0.27889,1.0357 -1.71578,3.36886 -3.79035,6.15459 -8.50717,11.42346 -21.14248,18.73286 -35.47466,20.52175 -2.7335,0.34119 -9.26639,0.38087 -11.80511,0.0717 z"
     id="path1405"
     inkscape:export-filename="C:\Users\dboja\source\repos\ChonkyApp\ChonkyApp\ChonkyApp.Android\Resources\drawable\smiley_elated_green.png"
     inkscape:export-xdpi="96"
     inkscape:export-ydpi="96" />
</svg>
