<?xml version="1.0" encoding="UTF-8" standalone="no"?>
<svg
   width="256"
   height="256"
   viewBox="0 0 256 256"
   id="Flat"
   version="1.1"
   sodipodi:docname="smiley_dead.svg"
   inkscape:version="1.1.1 (3bf5ae0d25, 2021-09-20)"
   inkscape:export-filename="C:\Users\dboja\source\repos\ChonkyApp\ChonkyApp\ChonkyApp.Android\Resources\drawable\smiley_crushed_red.png"
   inkscape:export-xdpi="96"
   inkscape:export-ydpi="96"
   xmlns:inkscape="http://www.inkscape.org/namespaces/inkscape"
   xmlns:sodipodi="http://sodipodi.sourceforge.net/DTD/sodipodi-0.dtd"
   xmlns="http://www.w3.org/2000/svg"
   xmlns:svg="http://www.w3.org/2000/svg">
  <defs
     id="defs836" />
  <sodipodi:namedview
     id="namedview834"
     pagecolor="#000000"
     bordercolor="#666666"
     borderopacity="1.0"
     inkscape:pageshadow="2"
     inkscape:pageopacity="0"
     inkscape:pagecheckerboard="0"
     showgrid="false"
     inkscape:zoom="4.5351562"
     inkscape:cx="128"
     inkscape:cy="128"
     inkscape:window-width="2560"
     inkscape:window-height="1369"
     inkscape:window-x="2552"
     inkscape:window-y="-8"
     inkscape:window-maximized="1"
     inkscape:current-layer="Flat" />
  <path
     d="M 128,28 A 100,100 0 1 0 228,128 100.11332,100.11332 0 0 0 128,28 Z m 0,192 a 92,92 0 1 1 92,-92 92.10416,92.10416 0 0 1 -92,92 z M 186.82812,98.82812 173.65674,112 l 13.17138,13.17188 a 3.99957,3.99957 0 1 1 -5.65624,5.65624 L 168,117.65674 154.82812,130.82812 a 3.99957,3.99957 0 0 1 -5.65624,-5.65624 L 162.34326,112 149.17188,98.82812 a 3.99957,3.99957 0 0 1 5.65624,-5.65624 L 168,106.34326 181.17188,93.17188 a 3.99957,3.99957 0 1 1 5.65624,5.65624 z m -80,0 L 93.65674,112 l 13.17138,13.17188 a 3.99957,3.99957 0 1 1 -5.65624,5.65624 L 88,117.65674 74.82812,130.82812 a 3.99957,3.99957 0 0 1 -5.65624,-5.65624 L 82.34326,112 69.17188,98.82812 a 3.99957,3.99957 0 0 1 5.65624,-5.65624 L 88,106.34326 101.17188,93.17188 a 3.99957,3.99957 0 0 1 5.65624,5.65624 z M 136,180 a 8,8 0 1 1 -8,-8 8.00917,8.00917 0 0 1 8,8 z"
     id="path831" />
  <path
     style="fill:#ff0000;fill-opacity:1;stroke:none;stroke-width:0.2205"
     d="m 122.48751,227.75738 c -0.4851,-0.047 -2.09404,-0.1906 -3.57542,-0.31903 -19.679266,-1.70612 -39.387913,-9.86209 -54.736096,-22.65126 -3.251182,-2.70912 -8.940967,-8.28772 -11.622638,-11.39553 -12.328251,-14.28732 -20.179347,-31.18826 -23.220193,-49.98578 -1.52804,-9.44585 -1.522305,-21.27034 0.01501,-30.951 C 32.273043,94.03654 40.284955,76.826398 52.553356,62.608443 55.25297,59.479838 60.948487,53.899662 64.165375,51.231582 79.754172,38.30227 98.079523,30.688859 118.84927,28.512728 c 4.51841,-0.473413 15.36604,-0.357862 20.06546,0.213741 9.35627,1.138028 17.43904,3.150358 25.52644,6.355201 13.15943,5.214771 24.06254,12.373379 34.02551,22.339986 8.29774,8.300776 13.90896,16.1294 19.05761,26.58868 5.77731,11.736385 8.87356,22.891634 10.03709,36.161934 0.34195,3.89991 0.28184,12.86853 -0.11379,16.97846 -1.97122,20.47805 -9.72044,39.04186 -22.99422,55.08432 -2.3093,2.79098 -7.54528,8.10413 -10.85475,11.01473 -15.17005,13.34171 -34.56053,21.81191 -55.14921,24.09041 -2.96654,0.3283 -13.92474,0.61471 -15.9619,0.41719 z m 14.85877,-8.15441 c 11.41014,-1.19122 21.66074,-4.19847 31.99739,-9.38715 24.1745,-12.13488 41.62859,-34.021 48.0692,-60.27519 1.96484,-8.0094 2.53144,-12.95342 2.5271,-22.05088 -0.004,-7.56383 -0.23822,-10.44467 -1.33785,-16.42722 C 211.47232,72.672691 180.78755,42.905768 141.78258,36.940825 136.88649,36.192078 133.84755,35.980287 128,35.980287 c -5.84755,0 -8.88649,0.211791 -13.78258,0.960538 -24.840433,3.798792 -46.655316,17.22057 -61.322321,37.729039 -7.623937,10.660343 -13.070901,23.592234 -15.497218,36.792666 -1.108746,6.03216 -1.336698,8.85235 -1.336698,16.53747 0,7.68512 0.227952,10.50531 1.336698,16.53747 4.194045,22.8178 16.763779,43.17241 35.256727,57.09246 14.326598,10.78395 31.551882,17.1279 49.722652,18.31251 3.79776,0.24758 10.88556,0.0868 14.96902,-0.33947 z"
     id="path955" />
  <path
     style="fill:#ff0000;fill-opacity:1;stroke:none;stroke-width:0.2205"
     d="m 71.008917,131.71235 c -1.149056,-0.33306 -1.903815,-0.96431 -2.414626,-2.01951 -0.576095,-1.19005 -0.583177,-2.18226 -0.02378,-3.3321 0.275795,-0.56689 2.909868,-3.36793 7.164619,-7.61875 l 6.728477,-6.72227 -6.82346,-6.83845 c -6.947562,-6.962837 -7.511291,-7.654389 -7.500936,-9.20175 0.0077,-1.144312 0.744962,-2.505714 1.686719,-3.114455 1.11564,-0.721138 2.033229,-0.888083 3.196102,-0.581497 0.839134,0.221234 1.808462,1.102069 7.954854,7.228636 l 6.999279,6.976706 7.002445,-6.974432 c 6.13617,-6.111621 7.12066,-7.005876 7.95802,-7.228635 2.38435,-0.634299 4.63702,0.942812 4.83983,3.388394 0.0725,0.87469 -0.0142,1.370277 -0.35403,2.023716 -0.25167,0.483875 -3.42073,3.828777 -7.18876,7.587657 l -6.738687,6.7223 6.931397,6.94867 c 3.81228,3.82177 7.03637,7.228 7.16466,7.5694 1.12337,2.98953 -1.47189,5.95107 -4.5524,5.1949 -0.98148,-0.24093 -1.56162,-0.76046 -8.061497,-7.21938 l -7.003908,-6.95978 -6.887565,6.87009 c -3.78816,3.77855 -7.135626,6.96243 -7.438813,7.07529 -1.009197,0.37568 -1.86643,0.44888 -2.637939,0.22525 z"
     id="path1105" />
  <path
     style="fill:#ff0000;fill-opacity:1;stroke:none;stroke-width:0.2205"
     d="m 151.12262,131.7611 c -2.36245,-0.57089 -3.63564,-3.33793 -2.52094,-5.47876 0.23428,-0.44995 3.4591,-3.84385 7.16627,-7.542 l 6.7403,-6.72391 -6.81411,-6.83681 c -3.74776,-3.76025 -6.98352,-7.175523 -7.19058,-7.589503 -0.26367,-0.527158 -0.34763,-1.100499 -0.28022,-1.913465 0.20302,-2.448078 2.45451,-4.02542 4.84003,-3.390809 0.83737,0.222759 1.82185,1.117014 7.95802,7.228635 l 7.00245,6.974432 6.99927,-6.976706 c 7.54545,-7.52111 7.75848,-7.682801 9.65382,-7.327234 1.70923,0.320653 3.1887,2.092896 3.1887,3.819697 0,1.523039 -0.73937,2.425854 -7.60076,9.280903 l -6.72848,6.72227 6.82346,6.83846 c 6.92962,6.94485 7.50578,7.65008 7.50578,9.18725 0,0.94585 -0.77886,2.50898 -1.50932,3.02911 -0.9757,0.69476 -2.31772,0.96108 -3.39679,0.67409 -0.81347,-0.21635 -1.86109,-1.1695 -7.9395,-7.22359 l -7.00237,-6.97436 -6.77885,6.75001 c -3.72837,3.71251 -7.07653,6.89774 -7.44035,7.07829 -0.91235,0.45277 -1.85702,0.59187 -2.67583,0.394 z"
     id="path1255" />
  <path
     style="fill:#ff0000;fill-opacity:1;stroke:none;stroke-width:0.2205"
     d="m 126.62622,187.74982 c -3.51641,-0.71799 -6.15867,-3.63879 -6.4049,-7.08007 -0.13877,-1.93956 0.25518,-3.46379 1.29944,-5.02758 1.00272,-1.50158 2.63572,-2.69628 4.36939,-3.19661 1.61492,-0.46607 2.84921,-0.43493 4.48718,0.11321 5.76458,1.92911 7.3296,9.13874 2.86877,13.21569 -1.78122,1.62794 -4.4383,2.42081 -6.61988,1.97536 z"
     id="path1405"
     inkscape:export-filename="C:\Users\dboja\source\repos\ChonkyApp\ChonkyApp\ChonkyApp.Android\Resources\drawable\smiley_crushed_red.png"
     inkscape:export-xdpi="185.625"
     inkscape:export-ydpi="185.625" />
</svg>
