<?xml version="1.0" encoding="UTF-8" standalone="no"?>
<svg
   width="256px"
   height="256px"
   viewBox="0 0 256 256"
   id="Flat"
   version="1.1"
   sodipodi:docname="smiley_neutral.svg"
   inkscape:version="1.1.1 (3bf5ae0d25, 2021-09-20)"
   xmlns:inkscape="http://www.inkscape.org/namespaces/inkscape"
   xmlns:sodipodi="http://sodipodi.sourceforge.net/DTD/sodipodi-0.dtd"
   xmlns:xlink="http://www.w3.org/1999/xlink"
   xmlns="http://www.w3.org/2000/svg"
   xmlns:svg="http://www.w3.org/2000/svg">
  <defs
     id="defs7">
    <linearGradient
       inkscape:collect="always"
       id="linearGradient3316">
      <stop
         style="stop-color:#ffff00;stop-opacity:1;"
         offset="0"
         id="stop3312" />
      <stop
         style="stop-color:#ffff00;stop-opacity:0;"
         offset="1"
         id="stop3314" />
    </linearGradient>
    <linearGradient
       inkscape:collect="always"
       xlink:href="#linearGradient3316"
       id="linearGradient3318"
       x1="28.016711"
       y1="132.13525"
       x2="29.729273"
       y2="132.13525"
       gradientUnits="userSpaceOnUse" />
  </defs>
  <sodipodi:namedview
     id="namedview5"
     pagecolor="#ffffff"
     bordercolor="#666666"
     borderopacity="1.0"
     inkscape:pageshadow="2"
     inkscape:pageopacity="0.0"
     inkscape:pagecheckerboard="0"
     showgrid="false"
     inkscape:zoom="2.8284271"
     inkscape:cx="-64.877047"
     inkscape:cy="250.13902"
     inkscape:window-width="2560"
     inkscape:window-height="1369"
     inkscape:window-x="2552"
     inkscape:window-y="-8"
     inkscape:window-maximized="1"
     inkscape:current-layer="Flat" />
  <path
     d="M128,28A100,100,0,1,0,228,128,100.11332,100.11332,0,0,0,128,28Zm0,192a92,92,0,1,1,92-92A92.10416,92.10416,0,0,1,128,220Zm44-60a4.0002,4.0002,0,0,1-4,4H88a4,4,0,0,1,0-8h80A4.0002,4.0002,0,0,1,172,160ZM84,108a8,8,0,1,1,8,8A8.00917,8.00917,0,0,1,84,108Zm88,0a8,8,0,1,1-8-8A8.00917,8.00917,0,0,1,172,108Z"
     id="path2" />
  <path
     style="fill:#ffff00;stroke:none;stroke-width:0.293242;fill-opacity:1"
     d="M 122.57163,227.64572 C 108.4693,226.97275 92.627357,222.47588 80.201604,215.61863 62.83415,206.03427 48.642893,191.57364 39.579859,174.22581 33.987068,163.52047 30.571037,152.59262 28.842252,139.87629 c -0.729512,-5.36603 -0.729512,-18.38655 0,-23.75258 C 32.052747,92.508456 41.905205,72.661468 58.406816,56.568259 77.259612,38.182059 101.63688,28.266546 128,28.261064 c 23.19561,-0.0048 44.31479,7.473831 62.88572,22.268873 3.77734,3.009323 11.62722,10.900512 14.78516,14.862961 13.89072,17.429474 21.36902,37.635432 22.0858,59.674682 0.7595,23.3526 -7.01033,46.6144 -21.79582,65.25363 -3.41524,4.30541 -12.05984,12.87589 -16.23348,16.0943 -11.6896,9.01416 -23.46932,14.7963 -37.38832,18.35223 -9.6505,2.46544 -19.15542,3.3844 -29.76743,2.87798 z m 13.49252,-7.87208 c 35.65598,-3.19577 66.17255,-26.62322 78.53412,-60.29036 2.39184,-6.51424 4.24329,-14.58799 5.06781,-22.09955 0.48037,-4.37621 0.48308,-14.47097 0.005,-18.76746 C 216.10914,86.601838 197.37177,59.56869 169.05384,45.5887 163.19137,42.694519 159.32028,41.160091 153.912,39.586752 134.19851,33.851844 112.75448,34.861964 93.847512,42.416088 83.583721,46.5169 73.268282,53.039424 65.416791,60.39303 49.01222,75.757347 39.340536,94.771552 36.472428,117.29668 c -0.677501,5.32085 -0.674841,15.95109 0.0054,21.40664 2.590739,20.77914 11.505535,39.36574 25.879445,53.95647 9.920762,10.07041 22.247318,17.834 35.774123,22.53148 5.941114,2.06318 14.764164,3.95525 21.218024,4.55012 3.99561,0.36828 12.7765,0.38523 16.71477,0.0323 z"
     id="path883" />
  <path
     style="fill:#ffff00;stroke:#ffff00;stroke-width:0.293242;fill-opacity:1;stroke-opacity:1"
     d="m 90.533819,115.66435 c -3.990857,-0.96307 -6.681648,-4.53393 -6.288311,-8.345 0.387898,-3.75837 3.322816,-6.70314 7.065721,-7.08944 3.116204,-0.32162 6.344801,1.54175 7.694879,4.44107 0.877646,1.88476 0.93774,4.73414 0.137028,6.49727 -1.45932,3.21336 -5.399007,5.27081 -8.609317,4.4961 z"
     id="path1033" />
  <path
     style="fill:#ffff00;stroke:#ffff00;stroke-width:0.293242;stroke-opacity:1;fill-opacity:1"
     d="m 162.55161,115.67004 c -1.64889,-0.32496 -2.80923,-0.95981 -4.08371,-2.23429 -3.12561,-3.12561 -2.89378,-8.44111 0.49464,-11.34147 4.7703,-4.083204 12.14045,-1.08735 12.78922,5.19862 0.51221,4.96287 -4.29843,9.34317 -9.20015,8.37714 z"
     id="path1294" />
  <path
     style="fill:#ffff00;stroke:#ffff00;stroke-width:0.293242;fill-opacity:1;stroke-opacity:1"
     d="m 85.975481,163.18149 c -0.995751,-0.6071 -1.815114,-2.09071 -1.815114,-3.28661 0,-1.08947 0.995077,-2.63094 2.070774,-3.20785 0.953907,-0.51158 2.843807,-0.53583 41.768859,-0.53583 38.92505,0 40.81495,0.0243 41.76886,0.53583 1.0757,0.57691 2.07077,2.11838 2.07077,3.20785 0,1.1959 -0.81936,2.67951 -1.81511,3.28661 -0.96139,0.58614 -1.3637,0.5918 -42.02452,0.5918 -40.660822,0 -41.06313,-0.006 -42.024519,-0.5918 z"
     id="path1481" />
  <path
     style="fill:#ffff00;stroke:#ffff00;stroke-width:0.293242;stroke-opacity:1;fill-opacity:1"
     d="m 120.84626,227.40032 c -17.74941,-1.39318 -35.056405,-7.50439 -49.343076,-17.42334 -9.549222,-6.62984 -18.9841,-16.06226 -25.534597,-25.52795 -9.500947,-13.7292 -15.778436,-30.99184 -17.221741,-47.35854 -0.385958,-4.37667 -0.379925,-13.85393 0.01167,-18.3276 0.588394,-6.722 2.440411,-15.24158 4.940313,-22.726235 C 42.857274,68.616442 64.46536,45.946269 91.63803,35.24961 c 22.97326,-9.043539 49.40187,-9.099886 72.36467,-0.154287 17.61578,6.862563 33.76789,19.441957 45.0185,35.060764 3.88214,5.389443 8.49574,13.67045 11.06967,19.869113 7.91899,19.07092 9.6454,41.12332 4.78651,61.14089 -3.52964,14.54136 -10.76396,29.05311 -20.02625,40.17186 -2.7528,3.30455 -10.23415,10.745 -13.78,13.70467 -3.09802,2.58587 -9.08095,6.73517 -13.17645,9.13818 -11.43799,6.71118 -24.95871,11.19515 -38.60487,12.80282 -4.63142,0.54563 -14.08099,0.75913 -18.44355,0.4167 z m 17.59929,-7.75494 c 39.13622,-4.57801 70.98822,-33.1781 79.5452,-71.42409 2.49981,-11.17304 2.8947,-24.21873 1.06146,-35.06589 -2.64786,-15.667134 -9.17018,-30.472341 -18.80853,-42.694045 -1.30807,-1.658669 -4.57224,-5.19934 -7.25372,-7.868153 -7.5525,-7.516829 -14.81017,-12.673403 -24.52261,-17.42331 C 155.30755,38.734036 143.005,35.922819 128,35.922819 c -7.02407,0 -11.97093,0.449376 -18.14889,1.648657 -17.914405,3.477587 -35.186795,12.873021 -47.988373,26.103598 -13.930316,14.39714 -22.076919,31.0584 -25.284757,51.711856 -0.893441,5.75235 -0.891324,19.42546 0.0039,25.22614 2.653807,17.19548 9.107313,32.22513 19.335053,45.02966 15.372965,19.24605 38.327792,31.6929 63.139187,34.2361 3.08671,0.31639 16.02018,0.16068 19.38942,-0.23345 z"
     id="path1668" />
  <path
     style="fill:#ffff00;stroke:#ffff00;stroke-width:0.0183276;fill-opacity:1;stroke-opacity:1"
     d="m 195.64566,54.776632 c -2.11492,-2.01939 -3.65459,-3.387091 -5.09354,-4.524622 -13.48166,-10.657658 -28.32251,-17.484755 -44.31828,-20.38732 -0.63248,-0.114769 -1.89879,-0.328006 -2.44461,-0.411655 -0.435,-0.06667 -0.39404,-0.05133 -0.39404,-0.147542 0,-0.05486 0.008,-0.08212 0.0237,-0.08212 0.0355,0 1.52007,0.246979 1.99221,0.33144 8.25434,1.476603 16.13479,3.92024 23.77107,7.371134 2.75858,1.246625 5.72043,2.760029 8.39404,4.289068 6.44906,3.688217 12.54905,8.142833 17.95648,13.113005 l 0.42611,0.391661 v 0.172809 c 0,0.09504 -0.002,0.172807 -0.005,0.172807 -0.003,0 -0.14144,-0.129897 -0.30771,-0.28866 z"
     id="path1855" />
  <path
     style="fill:#ffff00;stroke:#ffff00;stroke-width:0.0129596;fill-opacity:1;stroke-opacity:1"
     d="m 62.556413,52.398387 c 0.01099,-0.0087 0.16262,-0.138462 0.336949,-0.288399 1.620644,-1.393879 3.360028,-2.789398 5.137924,-4.122191 6.330459,-4.745602 13.21657,-8.730521 20.482608,-11.853067 1.443196,-0.620206 3.187611,-1.320778 4.448374,-1.786503 l 0.100436,-0.0371 v 0.08082 0.08082 l -0.204113,0.07609 c -4.10567,1.530599 -8.399221,3.493931 -12.353526,5.648957 -6.227186,3.393704 -11.944724,7.357084 -17.463215,12.105446 l -0.129596,0.111509 -0.187913,-2.98e-4 c -0.150052,-2.46e-4 -0.183887,-0.0035 -0.167928,-0.01609 z"
     id="path2052" />
  <path
     style="fill:#a0a0a0;stroke:none;stroke-width:0.0129596"
     d=""
     id="path2332" />
  <path
     style="fill:#ffff00;stroke:#ffff00;stroke-width:0.0129596;fill-opacity:1;stroke-opacity:1"
     d="m 50.775613,64.485859 c 0,-0.0092 0.599917,-0.730367 0.996328,-1.197777 2.746157,-3.238006 5.761655,-6.357552 8.967934,-9.277367 0.359007,-0.326932 1.129613,-1.013203 1.513955,-1.348269 l 0.273617,-0.238537 0.179302,0.003 c 0.09862,0.0016 0.180218,0.004 0.181338,0.0053 0.0011,0.0013 -0.138426,0.12477 -0.310103,0.274453 -3.992766,3.481251 -7.936701,7.507226 -11.35294,11.5891 l -0.165405,0.197633 h -0.142013 c -0.07811,0 -0.142013,-0.0034 -0.142013,-0.0075 z"
     id="path2371" />
  <path
     style="fill:#ffff00;stroke:#ffff00;stroke-width:0.0091638;stroke-opacity:1;fill-opacity:1"
     d="m 42.146112,76.735395 c 0.09,-0.152673 0.46922,-0.778019 0.665455,-1.097365 2.317721,-3.771756 4.896461,-7.401704 7.701364,-10.840779 l 0.246641,-0.302405 0.139114,0.0081 c 0.07651,0.0044 0.140481,0.0092 0.142151,0.01067 0.0017,0.0014 -0.06652,0.08645 -0.151534,0.188942 -2.448199,2.951533 -4.776713,6.122503 -6.852567,9.331824 -0.52355,0.809421 -1.180201,1.860853 -1.61809,2.590891 l -0.113949,0.189974 -0.102927,1.74e-4 -0.102927,1.74e-4 0.04727,-0.08018 z"
     id="path2571" />
  <path
     style="fill:#ffff00;stroke:#ffff00;stroke-width:0.0259191;fill-opacity:1;stroke-opacity:1"
     d="m 34.095596,93.665325 c 0.02058,-0.05346 0.159385,-0.423779 0.30846,-0.822933 1.963752,-5.258051 4.455151,-10.481866 7.370627,-15.454293 0.321862,-0.548944 0.323239,-0.550782 0.412724,-0.550782 0.04938,0 0.08467,0.0087 0.07842,0.01944 -0.0062,0.01069 -0.203371,0.346021 -0.438049,0.745176 -2.555565,4.346664 -4.843968,9.072615 -6.702014,13.840826 -0.261241,0.670411 -0.701956,1.841062 -0.836728,2.222567 -0.03151,0.08919 -0.04244,0.0972 -0.132597,0.0972 h -0.09826 z"
     id="path2772" />
  <path
     style="fill:#ffff00;stroke:#ffff00;stroke-width:0.0259191;fill-opacity:1;stroke-opacity:1"
     d="m 28.469978,118.45699 c 0.0096,-0.10335 0.05242,-0.52033 0.09516,-0.92661 0.816087,-7.75788 2.557893,-15.46881 5.155172,-22.82181 0.354074,-1.002396 0.315662,-0.920129 0.429622,-0.920129 0.07968,0 0.09202,0.0072 0.07733,0.04536 -0.0096,0.02495 -0.0879,0.24364 -0.173963,0.485984 -2.220736,6.253235 -3.862873,12.842615 -4.931676,19.789265 -0.262254,1.70452 -0.412249,2.89627 -0.498299,3.95915 l -0.04669,0.5767 h -0.06205 c -0.06136,0 -0.06186,-0.002 -0.0446,-0.18791 z"
     id="path2959" />
  <path
     style="fill:url(#linearGradient3318);stroke:none;stroke-width:0.0259191;fill-opacity:1"
     d="m 29.56476,145.5425 c -0.02583,-0.10311 -0.375,-2.24101 -0.46883,-2.87054 -0.371009,-2.48921 -0.662784,-5.18138 -0.84273,-7.77575 -0.346804,-5.00004 -0.311821,-10.16576 0.102617,-15.15297 0.09569,-1.15149 0.08421,-1.07242 0.155741,-1.07242 0.06322,0 0.06305,-0.01 0.01318,0.7387 -0.161926,2.42994 -0.230878,4.996 -0.230878,8.5922 0,4.56132 0.126515,7.94416 0.399856,10.69165 0.138313,1.39025 0.533362,4.03191 0.946317,6.32795 0.04908,0.27288 0.08924,0.5149 0.08924,0.53782 0,0.0287 -0.02337,0.0417 -0.07495,0.0417 -0.05612,0 -0.07862,-0.0147 -0.08956,-0.0583 z"
     id="path3162" />
  <path
     style="fill:#ffff00;stroke:none;stroke-width:0.0259191;fill-opacity:1"
     d="m 40.619338,176.59343 c -2.19922,-3.97902 -4.000008,-7.78812 -5.621195,-11.8902 -2.319832,-5.86985 -4.141229,-12.18797 -5.267762,-18.273 -0.07258,-0.39203 -0.137732,-0.73902 -0.144789,-0.77109 -0.01066,-0.0484 -0.0018,-0.0583 0.05246,-0.0583 0.0559,0 0.06563,-0.0121 0.06762,-0.0842 0.0013,-0.0463 0.02592,0.0382 0.05474,0.18792 0.944147,4.90267 1.84221,8.49219 3.171025,12.67446 1.946855,6.12746 4.738148,12.55694 7.896469,18.18876 l 0.07631,0.13608 -0.112058,-2.6e-4 c -0.104889,-2.6e-4 -0.115947,-0.007 -0.172825,-0.11016 z"
     id="path3320" />
  <path
     style="fill:#ffff00;stroke:#ffff00;stroke-width:0.0259191;fill-opacity:1;stroke-opacity:1"
     d="m 29.311019,143.97439 c -0.0052,-0.0392 -0.003,-0.21707 0.0048,-0.39526 l 0.01419,-0.32399 0.0053,0.39526 c 0.005,0.37447 -0.0031,0.48327 -0.0242,0.32399 z"
     id="path3470" />
  <path
     style="fill:#a0a0a0;stroke:none;stroke-width:0.00390625"
     d="m 29.453125,144.88431 -0.01758,-0.10697 0.002,-0.44875 0.002,-0.44875 0.01678,0.10109 0.01678,0.1011 -0.0012,0.45462 -0.0012,0.45462 z"
     id="path3680" />
  <path
     style="fill:#a0a0a0;stroke:none;stroke-width:0.00390625"
     d="m 29.390625,144.5054 -0.01758,-0.10696 0.002,-0.4462 0.002,-0.4462 0.01677,0.1044 0.01677,0.1044 -0.0011,0.44877 -0.0011,0.44876 z"
     id="path3719" />
  <path
     style="fill:#a0a0a0;stroke:none;stroke-width:0.00390625"
     d="m 29.359375,144.31445 -0.0098,-0.0605 0.002,-0.44532 0.002,-0.44531 0.01075,0.0684 0.01075,0.0684 -5.72e-4,0.2168 c -3.15e-4,0.11924 -0.0016,0.31611 -0.0029,0.4375 l -0.0024,0.2207 z"
     id="path3758" />
  <path
     style="fill:#a0a0a0;stroke:none;stroke-width:0.00390625"
     d="m 29.510773,145.22852 c -0.0037,-0.0226 -0.01385,-0.0823 -0.02246,-0.13263 -0.0086,-0.0504 -0.01566,-0.10254 -0.01566,-0.11589 0,-0.0134 -0.0015,-0.0249 -0.0033,-0.0256 -0.0018,-7.2e-4 -0.0097,-0.0409 -0.01758,-0.0892 l -0.01432,-0.0879 4e-6,-0.21386 c 2e-6,-0.13861 -0.0014,-0.21387 -0.0039,-0.21387 -0.0025,0 -0.0042,0.068 -0.0049,0.19043 l -0.001,0.19043 -0.0089,-0.0547 c -0.0088,-0.0539 -0.0089,-0.0596 -0.0091,-0.39297 -7.5e-5,-0.18606 0.0012,-0.38381 0.0028,-0.43946 l 0.003,-0.10116 0.0068,0.0391 c 0.0038,0.0215 0.0069,0.0474 0.0071,0.0576 1.33e-4,0.0102 0.002,0.0186 0.0041,0.0186 0.0025,0 0.0042,0.081 0.0048,0.2334 l 9.24e-4,0.2334 0.002,-0.20477 0.002,-0.20477 0.01471,0.0895 c 0.0081,0.0493 0.01468,0.0935 0.01465,0.0983 -3.3e-5,0.005 0.0014,0.009 0.0031,0.009 0.0037,0 0.01648,0.077 0.01642,0.0986 -2.1e-5,0.008 0.0015,0.0147 0.0033,0.0147 0.0018,0 0.0081,0.0294 0.01388,0.0654 l 0.01055,0.0654 -0.0012,0.45703 c -0.0012,0.44962 -0.0013,0.45637 -0.008,0.41602 z"
     id="path3797" />
  <path
     style="fill:#a0a0a0;stroke:none;stroke-width:0.00390625"
     d="m 29.596146,145.5881 c -0.01019,-0.005 -0.01702,-0.0114 -0.02077,-0.0202 -0.007,-0.0164 -0.01768,-0.0647 -0.02853,-0.12843 -0.0046,-0.0268 -0.01001,-0.0523 -0.01208,-0.0566 -0.0021,-0.004 -0.0041,-0.0162 -0.0046,-0.0263 -4.68e-4,-0.0102 -0.0022,-0.0185 -0.0038,-0.0186 -0.0016,-2e-5 -0.003,-0.009 -0.0031,-0.0205 -7.9e-5,-0.0113 -0.0024,-0.0322 -0.0052,-0.0464 -0.0029,-0.0152 -0.0037,-0.0295 -0.0018,-0.0346 0.0018,-0.005 0.0028,-0.17947 0.0022,-0.38819 l -0.001,-0.37949 -0.0013,0.38281 -0.0013,0.38281 -0.0094,-0.0508 c -0.01224,-0.0664 -0.02776,-0.16843 -0.03105,-0.20408 -0.0014,-0.0156 -0.0038,-0.0276 -0.0053,-0.0267 -0.0015,9.1e-4 -0.0092,-0.0382 -0.01724,-0.0869 l -0.01456,-0.0886 6e-5,-0.21386 c 3.2e-5,-0.11763 -0.0014,-0.21387 -0.0032,-0.21387 -0.0042,0 -0.0083,0.11241 -0.0089,0.24379 l -4.76e-4,0.10191 -0.0061,-0.0312 c -0.0053,-0.0272 -0.0061,-0.0856 -0.0058,-0.45174 1.93e-4,-0.27388 0.0017,-0.42293 0.0042,-0.4275 0.003,-0.005 0.0045,2.4e-4 0.0066,0.024 0.0015,0.0171 0.0044,0.0366 0.0065,0.0434 0.0021,0.007 0.0052,0.10438 0.0069,0.21679 l 0.0031,0.2044 10e-4,-0.17969 0.001,-0.17969 0.01322,0.0762 c 0.0073,0.0419 0.01485,0.0876 0.01685,0.10157 0.0087,0.0611 0.01698,0.10989 0.02404,0.14257 0.01381,0.064 0.02319,0.12928 0.0239,0.16645 l 7.04e-4,0.0367 0.0022,-0.0293 0.0022,-0.0293 0.0069,0.043 c 0.0038,0.0236 0.0069,0.0494 0.0068,0.0573 -2.1e-5,0.008 0.0015,0.0149 0.0034,0.0156 0.0041,0.002 0.02392,0.11709 0.02392,0.13965 0,0.009 0.0015,0.0159 0.0033,0.0159 0.0036,0 0.02031,0.0959 0.02019,0.11621 -3.9e-5,0.007 0.0013,0.0127 0.003,0.0127 0.0017,0 0.0071,0.025 0.01199,0.0557 0.0089,0.0555 0.0089,0.0571 0.0077,0.40791 l -0.0012,0.35225 z"
     id="path3836" />
  <path
     style="fill:#ffffa0;stroke:#ffff00;stroke-width:0.00390625;stroke-opacity:1;fill-opacity:1"
     d="m 29.618164,145.59702 c -0.0039,-0.002 -0.0048,-0.0761 -0.0045,-0.35613 l 4.15e-4,-0.35417 0.0092,0.0488 c 0.0051,0.0268 0.01041,0.0611 0.01189,0.0762 0.0015,0.015 0.0039,0.0282 0.0053,0.0293 0.0015,0.001 0.0065,0.0257 0.0112,0.0547 0.0081,0.0499 0.0085,0.0647 0.0085,0.27832 l -7.2e-5,0.22559 -0.01855,-3.1e-4 c -0.01021,-1.7e-4 -0.02075,-0.001 -0.02344,-0.002 z"
     id="path3875" />
</svg>
