<?xml version="1.0" encoding="UTF-8" standalone="no"?>
<svg
   width="256px"
   height="256px"
   viewBox="0 0 256 256"
   id="Flat"
   version="1.1"
   sodipodi:docname="smiley_positive.svg"
   inkscape:version="1.1.1 (3bf5ae0d25, 2021-09-20)"
   inkscape:export-filename="C:\Users\dboja\source\repos\ChonkyApp\ChonkyApp\ChonkyApp.Android\Resources\drawable\smiley_positive_lime.png"
   inkscape:export-xdpi="96"
   inkscape:export-ydpi="96"
   xmlns:inkscape="http://www.inkscape.org/namespaces/inkscape"
   xmlns:sodipodi="http://sodipodi.sourceforge.net/DTD/sodipodi-0.dtd"
   xmlns="http://www.w3.org/2000/svg"
   xmlns:svg="http://www.w3.org/2000/svg">
  <defs
     id="defs836" />
  <sodipodi:namedview
     id="namedview834"
     pagecolor="#000000"
     bordercolor="#666666"
     borderopacity="1.0"
     inkscape:pageshadow="2"
     inkscape:pageopacity="0"
     inkscape:pagecheckerboard="0"
     showgrid="false"
     inkscape:zoom="4.5351562"
     inkscape:cx="128"
     inkscape:cy="128"
     inkscape:window-width="2560"
     inkscape:window-height="1369"
     inkscape:window-x="2552"
     inkscape:window-y="-8"
     inkscape:window-maximized="1"
     inkscape:current-layer="Flat" />
  <path
     d="M128,28A100,100,0,1,0,228,128,100.11332,100.11332,0,0,0,128,28Zm0,192a92,92,0,1,1,92-92A92.10416,92.10416,0,0,1,128,220ZM84,108a8,8,0,1,1,8,8A7.99977,7.99977,0,0,1,84,108Zm72,0a8,8,0,1,1,8,8A7.99977,7.99977,0,0,1,156,108Zm17.04248,46a52.01569,52.01569,0,0,1-90.08447.00049,3.99987,3.99987,0,1,1,6.9248-4.00537,44.01578,44.01578,0,0,0,76.23438-.00049A4.00008,4.00008,0,1,1,173.04248,154Z"
     id="path831"
     inkscape:export-filename="C:\Users\dboja\source\repos\ChonkyApp\ChonkyApp\ChonkyApp.Android\Resources\drawable\smiley_positive_lime.png"
     inkscape:export-xdpi="25.4"
     inkscape:export-ydpi="25.4" />
  <path
     style="fill:#adff2f;stroke:none;stroke-width:0.2205;fill-opacity:1"
     d="m 122.48751,227.75738 c -0.4851,-0.047 -2.09404,-0.1906 -3.57542,-0.31903 -19.679266,-1.70612 -39.387913,-9.86209 -54.736096,-22.65126 -3.251182,-2.70912 -8.940967,-8.28772 -11.622638,-11.39553 -13.7175,-15.89733 -22.002493,-35.30887 -24.004012,-56.24083 -0.444397,-4.64752 -0.442849,-13.6803 0.0031,-18.30146 C 30.581932,97.820784 38.813681,78.531471 52.553356,62.608443 55.25297,59.479838 60.948487,53.899662 64.165375,51.231582 79.754172,38.30227 98.079523,30.688859 118.84927,28.512728 c 4.51841,-0.473413 15.36604,-0.357862 20.06546,0.213741 9.35627,1.138028 17.43904,3.150358 25.52644,6.355201 13.15943,5.214771 24.06254,12.373379 34.02551,22.339986 8.29774,8.300776 13.90896,16.1294 19.05761,26.58868 5.77771,11.737199 8.88185,22.922444 10.0357,36.161934 0.3407,3.9094 0.28098,12.87635 -0.11309,16.97846 -1.96617,20.46715 -9.71966,39.04176 -22.99353,55.08432 -2.3093,2.79098 -7.54528,8.10413 -10.85475,11.01473 -15.17005,13.34171 -34.56053,21.81191 -55.14921,24.09041 -2.96654,0.3283 -13.92474,0.61471 -15.9619,0.41719 z m 14.85877,-8.15441 c 11.41014,-1.19122 21.66074,-4.19847 31.99739,-9.38715 24.1745,-12.13488 41.62859,-34.021 48.0692,-60.27519 1.96484,-8.0094 2.53144,-12.95342 2.5271,-22.05088 -0.004,-7.56383 -0.23822,-10.44467 -1.33785,-16.42722 C 211.47232,72.672691 180.78755,42.905768 141.78258,36.940825 136.88649,36.192078 133.84755,35.980287 128,35.980287 c -5.84755,0 -8.88649,0.211791 -13.78258,0.960538 -24.840433,3.798792 -46.655316,17.22057 -61.322321,37.729039 -7.623937,10.660343 -13.070901,23.592234 -15.497218,36.792666 -1.108746,6.03216 -1.336698,8.85235 -1.336698,16.53747 0,7.68512 0.227952,10.50531 1.336698,16.53747 4.194045,22.8178 16.763779,43.17241 35.256727,57.09246 14.326598,10.78395 31.551882,17.1279 49.722652,18.31251 3.79776,0.24758 10.88556,0.0868 14.96902,-0.33947 z"
     id="path955"
     inkscape:export-filename="C:\Users\dboja\source\repos\ChonkyApp\ChonkyApp\ChonkyApp.Android\Resources\drawable\smiley_positive_lime.png"
     inkscape:export-xdpi="25.4"
     inkscape:export-ydpi="25.4" />
  <path
     style="fill:#adff2f;stroke:none;stroke-width:0.2205;fill-opacity:1"
     d="m 89.714698,115.52747 c -4.272279,-1.31547 -6.604536,-6.12086 -5.023839,-10.35111 0.683261,-1.82855 2.666804,-3.81315 4.501217,-4.50363 1.095298,-0.41227 1.645571,-0.4829 3.197244,-0.41039 1.612011,0.0753 2.069411,0.19183 3.269129,0.83256 1.6159,0.863 2.723835,2.04003 3.532335,3.75265 0.473755,1.00353 0.573621,1.53607 0.578896,3.08699 0.0054,1.59943 -0.08423,2.06823 -0.611522,3.19724 -1.714395,3.67074 -5.728966,5.53942 -9.44346,4.39569 z"
     id="path1105"
     inkscape:export-filename="C:\Users\dboja\source\repos\ChonkyApp\ChonkyApp\ChonkyApp.Android\Resources\drawable\smiley_positive_lime.png"
     inkscape:export-xdpi="25.4"
     inkscape:export-ydpi="25.4" />
  <path
     style="fill:#adff2f;stroke:none;stroke-width:0.2205;fill-opacity:1"
     d="m 161.76377,115.52483 c -2.18268,-0.69705 -3.91991,-2.2476 -4.92193,-4.39305 -0.82186,-1.75972 -0.86951,-4.47353 -0.10809,-6.15642 1.35975,-3.00531 4.10032,-4.79438 7.32864,-4.78417 5.64187,0.0178 9.44171,6.01365 7.04393,11.1147 -1.62894,3.46542 -5.80164,5.34974 -9.34255,4.21894 z"
     id="path1255"
     inkscape:export-filename="C:\Users\dboja\source\repos\ChonkyApp\ChonkyApp\ChonkyApp.Android\Resources\drawable\smiley_positive_lime.png"
     inkscape:export-xdpi="25.4"
     inkscape:export-ydpi="25.4" />
  <path
     style="fill:#adff2f;stroke:none;stroke-width:0.2205;fill-opacity:1"
     d="m 122.26701,179.57365 c -10.91235,-1.32889 -20.55875,-5.66644 -28.880402,-12.98623 -4.550809,-4.00292 -10.387409,-11.61352 -10.805843,-14.09021 -0.413844,-2.44952 2.364478,-4.94815 4.717986,-4.24302 1.300167,0.38954 1.890595,0.98212 3.623551,3.63674 7.016144,10.74766 17.497898,17.55555 30.333048,19.70128 3.23972,0.54161 10.24958,0.54161 13.4893,0 12.90914,-2.1581 23.45641,-9.04967 30.48314,-19.91764 1.56962,-2.42766 2.18603,-3.03465 3.47346,-3.42038 2.5184,-0.75453 5.32482,2.01286 4.63588,4.57141 -0.27889,1.0357 -1.71578,3.36886 -3.79035,6.15459 -8.50717,11.42346 -21.14248,18.73286 -35.47466,20.52175 -2.7335,0.34119 -9.26639,0.38087 -11.80511,0.0717 z"
     id="path1405"
     inkscape:export-filename="C:\Users\dboja\source\repos\ChonkyApp\ChonkyApp\ChonkyApp.Android\Resources\drawable\smiley_positive_lime.png"
     inkscape:export-xdpi="25.4"
     inkscape:export-ydpi="25.4" />
</svg>
