<?xml version="1.0" encoding="UTF-8" standalone="no"?>
<svg
   width="256px"
   height="256px"
   viewBox="0 0 256 256"
   id="Flat"
   version="1.1"
   sodipodi:docname="smiley sad thin.svg"
   inkscape:version="1.1.1 (3bf5ae0d25, 2021-09-20)"
   inkscape:export-filename="C:\Users\dboja\source\repos\ChonkyApp\ChonkyApp\ChonkyApp.Android\Resources\drawable\smiley_upset_orange.png"
   inkscape:export-xdpi="96"
   inkscape:export-ydpi="96"
   xmlns:inkscape="http://www.inkscape.org/namespaces/inkscape"
   xmlns:sodipodi="http://sodipodi.sourceforge.net/DTD/sodipodi-0.dtd"
   xmlns="http://www.w3.org/2000/svg"
   xmlns:svg="http://www.w3.org/2000/svg">
  <defs
     id="defs836" />
  <sodipodi:namedview
     id="namedview834"
     pagecolor="#000000"
     bordercolor="#666666"
     borderopacity="1.0"
     inkscape:pageshadow="2"
     inkscape:pageopacity="0"
     inkscape:pagecheckerboard="0"
     showgrid="false"
     inkscape:zoom="4.5351562"
     inkscape:cx="128"
     inkscape:cy="128"
     inkscape:window-width="2560"
     inkscape:window-height="1369"
     inkscape:window-x="2552"
     inkscape:window-y="-8"
     inkscape:window-maximized="1"
     inkscape:current-layer="Flat" />
  <path
     d="M128,28A100,100,0,1,0,228,128,100.11332,100.11332,0,0,0,128,28Zm0,192a92,92,0,1,1,92-92A92.10416,92.10416,0,0,1,128,220ZM84,108a8,8,0,1,1,8,8A7.99977,7.99977,0,0,1,84,108Zm72,0a8,8,0,1,1,8,8A7.99977,7.99977,0,0,1,156,108Zm17.04248,65.99707a4.0002,4.0002,0,1,1-6.92529,4.00586,44.01554,44.01554,0,0,0-76.23438-.001,3.99975,3.99975,0,1,1-6.9248-4.00488,52.01544,52.01544,0,0,1,90.08447,0Z"
     id="path831"
     inkscape:export-filename="C:\Users\dboja\source\repos\ChonkyApp\ChonkyApp\ChonkyApp.Android\Resources\drawable\smiley_upset_orange.png"
     inkscape:export-xdpi="96"
     inkscape:export-ydpi="96" />
  <path
     style="fill:#ff4500;stroke:none;stroke-width:0.2205;fill-opacity:1"
     d="m 122.48751,227.75738 c -0.4851,-0.047 -2.09404,-0.1906 -3.57542,-0.31903 -19.679266,-1.70612 -39.387913,-9.86209 -54.736096,-22.65126 -3.251182,-2.70912 -8.940967,-8.28772 -11.622638,-11.39553 -12.328251,-14.28732 -20.179347,-31.18826 -23.220193,-49.98578 -1.52804,-9.44585 -1.522305,-21.27034 0.01501,-30.951 C 32.273043,94.03654 40.284955,76.826398 52.553356,62.608443 55.25297,59.479838 60.948487,53.899662 64.165375,51.231582 79.754172,38.30227 98.079523,30.688859 118.84927,28.512728 c 4.51841,-0.473413 15.36604,-0.357862 20.06546,0.213741 9.35627,1.138028 17.43904,3.150358 25.52644,6.355201 13.15943,5.214771 24.06254,12.373379 34.02551,22.339986 8.29774,8.300776 13.90896,16.1294 19.05761,26.58868 5.77771,11.737199 8.88185,22.922444 10.0357,36.161934 0.3407,3.9094 0.28098,12.87635 -0.11309,16.97846 -1.96617,20.46715 -9.71966,39.04176 -22.99353,55.08432 -2.3093,2.79098 -7.54528,8.10413 -10.85475,11.01473 -15.17005,13.34171 -34.56053,21.81191 -55.14921,24.09041 -2.96654,0.3283 -13.92474,0.61471 -15.9619,0.41719 z m 14.85877,-8.15441 c 11.41014,-1.19122 21.66074,-4.19847 31.99739,-9.38715 24.1745,-12.13488 41.62859,-34.021 48.0692,-60.27519 1.96484,-8.0094 2.53144,-12.95342 2.5271,-22.05088 -0.004,-7.56383 -0.23822,-10.44467 -1.33785,-16.42722 C 211.47232,72.672691 180.78755,42.905768 141.78258,36.940825 136.88649,36.192078 133.84755,35.980287 128,35.980287 c -5.84755,0 -8.88649,0.211791 -13.78258,0.960538 -24.840433,3.798792 -46.655316,17.22057 -61.322321,37.729039 -7.623937,10.660343 -13.070901,23.592234 -15.497218,36.792666 -1.108746,6.03216 -1.336698,8.85235 -1.336698,16.53747 0,7.68512 0.227952,10.50531 1.336698,16.53747 4.194725,22.8215 16.760778,43.17015 35.256727,57.09246 14.326598,10.78395 31.551882,17.1279 49.722652,18.31251 3.79776,0.24758 10.88556,0.0868 14.96902,-0.33947 z"
     id="path955"
     inkscape:export-filename="C:\Users\dboja\source\repos\ChonkyApp\ChonkyApp\ChonkyApp.Android\Resources\drawable\smiley_upset_orange.png"
     inkscape:export-xdpi="96"
     inkscape:export-ydpi="96" />
  <path
     style="fill:#ff4500;stroke:none;stroke-width:0.2205;fill-opacity:1"
     d="m 161.76377,115.52483 c -2.18268,-0.69705 -3.91991,-2.2476 -4.92193,-4.39305 -0.82186,-1.75972 -0.86951,-4.47353 -0.10809,-6.15642 1.35975,-3.00531 4.10032,-4.79438 7.32864,-4.78417 5.64187,0.0178 9.44171,6.01365 7.04393,11.1147 -1.62894,3.46542 -5.80164,5.34974 -9.34255,4.21894 z"
     id="path1327"
     inkscape:export-filename="C:\Users\dboja\source\repos\ChonkyApp\ChonkyApp\ChonkyApp.Android\Resources\drawable\smiley_upset_orange.png"
     inkscape:export-xdpi="96"
     inkscape:export-ydpi="96" />
  <path
     style="fill:#ff4500;stroke:none;stroke-width:0.2205;fill-opacity:1"
     d="m 89.714698,115.52747 c -4.272279,-1.31547 -6.604536,-6.12086 -5.023839,-10.35111 0.683261,-1.82855 2.666804,-3.81315 4.501217,-4.50363 1.095298,-0.41227 1.645571,-0.4829 3.197244,-0.41039 1.612011,0.0753 2.069411,0.19183 3.269129,0.83256 1.6159,0.863 2.723835,2.04003 3.532335,3.75265 0.473755,1.00353 0.573621,1.53607 0.578896,3.08699 0.0054,1.59943 -0.08423,2.06823 -0.611522,3.19724 -1.714395,3.67074 -5.728966,5.53942 -9.44346,4.39569 z"
     id="path1477"
     inkscape:export-filename="C:\Users\dboja\source\repos\ChonkyApp\ChonkyApp\ChonkyApp.Android\Resources\drawable\smiley_upset_orange.png"
     inkscape:export-xdpi="96"
     inkscape:export-ydpi="96" />
  <path
     style="fill:#ff45a0;stroke:none;stroke-width:0.2205;fill-opacity:1"
     d="m 84.720928,179.46356 c -1.619824,-0.82618 -2.517258,-2.74926 -2.034665,-4.36001 0.665938,-2.22271 4.914434,-7.96066 8.688974,-11.7352 4.342305,-4.34231 8.676013,-7.41363 14.244053,-10.09484 7.29654,-3.51354 14.16109,-5.06797 22.38071,-5.06797 6.30534,0 11.25172,0.82072 17.08872,2.83543 2.68639,0.92724 7.53911,3.21737 9.92248,4.68269 6.6244,4.07274 13.00509,10.42327 17.13695,17.05593 1.23644,1.9848 1.49898,2.92875 1.1626,4.18003 -0.65856,2.44972 -3.74217,3.66167 -5.8322,2.29224 -0.33172,-0.21736 -1.25069,-1.39453 -2.04214,-2.61595 -4.77779,-7.37336 -10.64023,-12.64926 -18.03245,-16.22829 -6.40868,-3.10284 -12.14213,-4.40417 -19.40396,-4.40417 -4.23834,0 -7.21043,0.33926 -10.72566,1.22433 -11.15626,2.80895 -20.224259,9.3978 -26.710753,19.40813 -0.791451,1.22142 -1.721491,2.40686 -2.066756,2.63433 -0.864089,0.56927 -2.840417,0.67046 -3.775903,0.19332 z"
     id="path1627"
     inkscape:export-filename="C:\Users\dboja\source\repos\ChonkyApp\ChonkyApp\ChonkyApp.Android\Resources\drawable\smiley_upset_orange.png"
     inkscape:export-xdpi="96"
     inkscape:export-ydpi="96" />
  <path
     style="fill:#ff4500;stroke:none;stroke-width:0.2205;fill-opacity:1"
     d="m 168.35986,179.48509 c -0.95671,-0.33876 -1.14812,-0.54123 -2.81266,-2.97518 -5.97071,-8.73056 -12.18026,-13.89324 -21.0807,-17.52669 -5.23996,-2.13912 -9.90586,-2.97977 -16.5387,-2.97977 -4.46794,0 -6.81843,0.21616 -9.74003,0.89574 -11.36461,2.64348 -20.714763,9.18028 -27.398057,19.1543 -2.169363,3.23751 -2.523828,3.52388 -4.376399,3.53559 -1.489386,0.009 -2.472654,-0.55972 -3.235722,-1.87295 -1.034176,-1.77979 -0.365162,-3.53917 3.116078,-8.19469 4.144539,-5.54255 8.930622,-10.00755 14.29764,-13.33845 2.68318,-1.66525 8.06987,-4.22041 11.01493,-5.22489 2.86616,-0.97758 6.51235,-1.83242 9.66852,-2.26675 3.13666,-0.43165 11.18432,-0.36182 14.33248,0.12436 5.36175,0.82804 9.59559,2.18106 14.98926,4.7902 5.43651,2.62986 9.40279,5.43412 13.67512,9.66866 4.73087,4.68903 9.04104,10.75083 9.04104,12.71526 0,1.55125 -1.27848,3.16807 -2.76969,3.50265 -0.35643,0.08 -0.79689,0.18062 -0.9788,0.22367 -0.18191,0.043 -0.72385,-0.0609 -1.20431,-0.23106 z"
     id="path1814"
     inkscape:export-filename="C:\Users\dboja\source\repos\ChonkyApp\ChonkyApp\ChonkyApp.Android\Resources\drawable\smiley_upset_orange.png"
     inkscape:export-xdpi="96"
     inkscape:export-ydpi="96" />
</svg>
