<?xml version="1.0" encoding="iso-8859-1"?>
<!-- Generator: Adobe Illustrator 19.0.0, SVG Export Plug-In . SVG Version: 6.00 Build 0)  -->
<svg version="1.1" id="Layer_1" xmlns="http://www.w3.org/2000/svg" xmlns:xlink="http://www.w3.org/1999/xlink" x="0px" y="0px"
	 viewBox="0 0 512 512" style="enable-background:new 0 0 512 512;" xml:space="preserve">
<g>
	<g>
		<path d="M437.284,425.794l-42.265-309.728V68.547C395.019,30.75,364.269,0,326.472,0H185.528
			c-37.797,0-68.547,30.75-68.547,68.547v47.519L74.716,425.794c-2.965,21.734,3.606,43.676,18.029,60.202
			C107.169,502.521,128.022,512,149.958,512h212.084c21.936,0,42.788-9.479,57.211-26.004
			C433.677,469.471,440.249,447.528,437.284,425.794z M137.738,68.547c0-26.351,21.439-47.79,47.79-47.79h140.944
			c26.351,0,47.79,21.439,47.79,47.79v37.846H137.738V68.547z M403.617,472.348c-10.482,12.007-25.635,18.896-41.574,18.896H149.958
			c-15.94,0-31.092-6.888-41.573-18.896c-10.481-12.009-15.256-27.954-13.102-43.747l41.134-301.45h239.165l41.134,301.45
			C418.871,444.394,414.097,460.339,403.617,472.348z"/>
	</g>
</g>
<g>
	<g>
		<path d="M188.112,150.857c-5.73-0.401-10.676,3.916-11.073,9.634l-18.487,265.991c-0.397,5.719,3.916,10.676,9.634,11.074
			c0.245,0.017,0.489,0.025,0.731,0.025c5.404,0,9.962-4.185,10.342-9.657l18.487-265.992
			C198.143,156.213,193.831,151.256,188.112,150.857z"/>
	</g>
</g>
<g>
	<g>
		<path d="M353.449,426.479l-18.487-265.99c-0.399-5.718-5.37-10.03-11.073-9.634c-5.718,0.399-10.031,5.355-9.634,11.073
			l18.487,265.992c0.381,5.473,4.939,9.657,10.342,9.657c0.242,0,0.486-0.008,0.731-0.025
			C349.533,437.155,353.846,432.199,353.449,426.479z"/>
	</g>
</g>
<g>
</g>
<g>
</g>
<g>
</g>
<g>
</g>
<g>
</g>
<g>
</g>
<g>
</g>
<g>
</g>
<g>
</g>
<g>
</g>
<g>
</g>
<g>
</g>
<g>
</g>
<g>
</g>
<g>
</g>
</svg>
